<?xml version="1.0"?>
<svg version="1.1" xmlns="http://www.w3.org/2000/svg" width="400px" height="200px" style="border: dashed 2px #aaa"><path fill="#" d="M50.833984375,109.638671875q0-2.966796875,0.2666015625-5.9404296875t1.1142578125-5.8583984375q0.24609375-0.861328125,0.642578125-1.7021484375t0.970703125-1.4970703125t1.3671875-1.06640625t1.88671875-0.41015625l0.287109375,0.02734375q1.17578125,0.1640625,1.736328125,0.9501953125t0.560546875,1.9619140625q0,0.314453125-0.0751953125,0.7861328125t-0.2392578125,0.9091796875t-0.4443359375,0.7451171875t-0.7041015625,0.3076171875q-0.19140625-0.02734375-0.3486328125-0.068359375t-0.2939453125-0.177734375q0.21875-0.478515625,0.3896484375-0.998046875t0.1708984375-1.189453125q0-0.24609375-0.041015625-0.62890625t-0.1572265625-0.7587890625t-0.3076171875-0.65625t-0.533203125-0.2802734375q-0.861328125,0-1.44921875,0.9638671875t-0.984375,2.4609375t-0.587890625,3.30859375t-0.2939453125,3.5t-0.1162109375,3.048828125t-0.013671875,1.9208984375q0,0.65625-0.013671875,1.44921875l0,0.177734375q0.013671875,0.697265625,0.095703125,1.326171875q0.109375,0.7109375,0.423828125,1.23046875t0.984375,0.6015625q0.205078125,0.02734375,0.396484375,0.02734375q0.79296875,0,1.435546875-0.451171875q0.79296875-0.560546875,1.408203125-1.4560546875t1.09375-1.96875t0.8818359375-2.0302734375t0.7861328125-1.5859375t0.79296875-0.62890625q0.13671875,0,0.41015625,0.0546875t0.2734375,0.259765625q0,0.0546875-0.02734375,0.150390625t-0.068359375,0.150390625q-0.369140625,1.44921875-0.9365234375,3.0078125t-1.44921875,2.8369140625t-2.16015625,2.0849609375t-3.0693359375,0.806640625q-1.28515625,0-2.0849609375-0.4853515625t-1.23046875-1.298828125t-0.587890625-1.8388671875t-0.1572265625-2.078125z M65.40369140625,113.75390625q0-0.396484375,0.0341796875-0.833984375t0.0615234375-0.8203125l0.08203125-2.05078125q0.13671875-2.4609375,0.3349609375-4.83984375t0.3349609375-4.8125q0.08203125-1.33984375,0.123046875-2.6318359375t0.123046875-2.6318359375q-0.0546875-0.109375-0.0546875-0.150390625q0-0.19140625,0.1435546875-0.30078125t0.3349609375-0.1845703125t0.4033203125-0.1025390625t0.3212890625-0.02734375l0.314453125,0q0.423828125,0.0546875,0.615234375,0.2666015625t0.24609375,0.505859375t0.02734375,0.62890625t-0.02734375,0.6220703125q0,1.982421875-0.095703125,4.0400390625t-0.21875,4.12890625t-0.2255859375,4.142578125t-0.1025390625,4.0947265625l0,0.95703125q0,0.642578125-0.3623046875,0.84765625t-1.0048828125,0.205078125q-0.560546875,0-0.984375-0.24609375t-0.423828125-0.806640625z M71.6745703125,108.572265625q0-1.2578125,0.2939453125-2.4677734375t0.4990234375-2.4130859375q0.0546875-0.314453125,0.4306640625-0.3896484375t0.6357421875-0.0751953125q0.451171875,0,0.724609375,0.13671875q0.109375,0.0546875,0.205078125,0.123046875t0.095703125,0.177734375q0,1.17578125-0.2802734375,2.296875t-0.2802734375,2.37890625q0,0.423828125,0.0615234375,0.7998046875t0.1162109375,0.7451171875l0.08203125,0.396484375q0,0.109375,0.013671875,0.19140625t0.041015625,0.19140625q0,0.24609375-0.3486328125,0.3349609375t-0.6083984375,0.0888671875q-0.396484375,0-0.7314453125-0.1572265625t-0.5263671875-0.5400390625l-0.19140625-0.396484375q-0.1640625-0.314453125-0.1640625-0.7041015625t-0.068359375-0.7177734375z M72.5495703125,100.341796875l0-0.259765625q0-0.642578125,0.3212890625-1.1484375t0.9638671875-0.505859375q0.08203125,0,0.1572265625,0.013671875t0.1572265625,0.013671875q0.1640625,0.02734375,0.4306640625,0.1298828125t0.2666015625,0.3212890625l0,0.02734375q-0.0546875,0.109375-0.068359375,0.2255859375t-0.068359375,0.1982421875l0.02734375-0.02734375q-0.1640625,0.423828125-0.2666015625,0.68359375t-0.2255859375,0.4169921875t-0.3076171875,0.2255859375t-0.5263671875,0.068359375q-0.0546875,0-0.19140625-0.013671875t-0.2939453125-0.0546875t-0.2666015625-0.109375t-0.109375-0.205078125z M77.08412109375,103.814453125q0-0.109375,0.1298828125-0.1982421875t0.2939453125-0.1298828125t0.3349609375-0.0546875t0.2529296875-0.013671875q0.615234375,0,1.052734375,0.546875t0.7587890625,1.4013671875t0.546875,1.88671875t0.4306640625,2.0576171875t0.4033203125,1.8798828125t0.4443359375,1.3193359375q0.423828125-0.833984375,0.7724609375-2.009765625t0.642578125-2.43359375t0.51953125-2.4814453125t0.3623046875-2.1396484375q0.0546875-0.24609375,0.341796875-0.3076171875t0.478515625-0.0615234375q0.314453125,0,0.546875,0.0888671875t0.232421875,0.3896484375q0,0.505859375-0.123046875,1.3740234375t-0.3349609375,1.9482421875t-0.4921875,2.21484375t-0.6015625,2.1533203125t-0.669921875,1.8046875t-0.6904296875,1.1142578125q-0.1640625,0.19140625-0.5126953125,0.2666015625t-0.5810546875,0.0751953125q-0.806640625,0-1.33984375-0.423828125l0,0.02734375q-0.833984375-0.779296875-1.23046875-1.900390625t-0.57421875-2.337890625t-0.3212890625-2.419921875t-0.4853515625-2.1875q-0.0546875-0.109375-0.13671875-0.3212890625t-0.19140625-0.423828125t-0.1845703125-0.4033203125t-0.0751953125-0.30078125z M87.86671875,109.4609375q0-0.95703125,0.2119140625-2.255859375t0.7177734375-2.4609375t1.3330078125-1.9755859375t2.0849609375-0.8134765625q1.17578125,0,1.763671875,0.6767578125t0.587890625,1.8251953125q0,0.751953125-0.2802734375,1.6474609375t-0.7998046875,1.6953125t-1.23046875,1.3330078125t-1.5859375,0.533203125l-0.35546875-0.02734375q0,0.369140625,0.109375,0.9912109375t0.3212890625,1.2373046875t0.546875,1.080078125t0.8134765625,0.46484375q0.697265625,0,1.33984375-0.560546875t1.216796875-1.244140625t1.06640625-1.244140625t0.90234375-0.560546875q0.21875,0,0.451171875,0.068359375t0.259765625,0.3828125q0,0.19140625-0.1025390625,0.314453125t-0.1845703125,0.2734375q-0.423828125,0.724609375-0.9228515625,1.380859375t-1.1279296875,1.189453125t-1.3740234375,0.8408203125t-1.6474609375,0.3076171875q-1.17578125,0-1.955078125-0.4169921875t-1.2578125-1.12109375t-0.6904296875-1.626953125t-0.2119140625-1.9345703125z M90.313984375,108.421875l0.3828125,0.341796875q0.2734375,0.24609375,0.546875,0.109375t0.4921875-0.4990234375t0.4033203125-0.8955078125t0.328125-1.09375t0.2119140625-1.09375t0.068359375-0.888671875l0-0.46484375t-0.041015625-0.4921875t-0.1435546875-0.3896484375t-0.3212890625-0.1982421875q-0.068359375-0.013671875-0.123046875-0.013671875q-0.46484375,0-0.79296875,0.587890625q-0.35546875,0.65625-0.57421875,1.5927734375t-0.314453125,1.9208984375t-0.123046875,1.4765625z"/><path fill="#" d=""/></svg>
